<?xml version="1.0" encoding="utf-8"?>
<!-- Generator: Adobe Illustrator 16.0.0, SVG Export Plug-In . SVG Version: 6.00 Build 0)  -->
<!DOCTYPE svg PUBLIC "-//W3C//DTD SVG 1.1//EN" "http://www.w3.org/Graphics/SVG/1.1/DTD/svg11.dtd">
<svg version="1.1" id="Layer_1" xmlns="http://www.w3.org/2000/svg" xmlns:xlink="http://www.w3.org/1999/xlink" x="0px" y="0px"
	 width="269.75px" height="41px" viewBox="0 0 269.75 41" enable-background="new 0 0 269.75 41" xml:space="preserve">
<g>
	<g>
		<path fill="#333334" d="M82.119,39.905c-3.517,0-6.232-1.047-8.148-3.141c-1.915-2.094-2.873-5.013-2.873-8.758
			c0-3.831,0.965-6.815,2.895-8.952s4.667-3.206,8.212-3.206c2.73,0,4.989,0.686,6.775,2.058c1.787,1.373,2.909,3.267,3.366,5.682
			l-6.067,0.3c-0.172-1.187-0.601-2.134-1.286-2.841c-0.687-0.708-1.658-1.061-2.916-1.061c-3.103,0-4.653,2.594-4.653,7.783
			c0,5.346,1.58,8.019,4.739,8.019c1.143,0,2.101-0.361,2.873-1.083c0.771-0.722,1.25-1.797,1.437-3.227l6.046,0.279
			c-0.214,1.586-0.782,3.002-1.704,4.245c-0.922,1.244-2.134,2.205-3.635,2.884C85.678,39.566,83.991,39.905,82.119,39.905z"/>
		<path fill="#333334" d="M118.911,27.855c0,3.76-1.044,6.708-3.131,8.845c-2.087,2.137-4.974,3.205-8.662,3.205
			c-3.616,0-6.453-1.072-8.512-3.216c-2.059-2.145-3.088-5.089-3.088-8.834c0-3.73,1.029-6.665,3.088-8.801s4.938-3.206,8.641-3.206
			c3.788,0,6.679,1.033,8.673,3.098C117.914,21.013,118.911,23.982,118.911,27.855z M112.607,27.855c0-2.758-0.45-4.76-1.351-6.003
			s-2.209-1.865-3.924-1.865c-3.659,0-5.489,2.623-5.489,7.869c0,2.587,0.447,4.556,1.341,5.907c0.893,1.351,2.183,2.026,3.87,2.026
			C110.756,35.789,112.607,33.145,112.607,27.855z"/>
		<path fill="#333334" d="M138.724,39.477V26.462c0-4.074-1.38-6.111-4.139-6.111c-1.458,0-2.634,0.625-3.527,1.876
			c-0.894,1.251-1.34,2.855-1.34,4.814v12.436h-6.024v-18.01c0-1.244-0.019-2.262-0.054-3.056c-0.036-0.793-0.075-1.504-0.118-2.133
			h5.746c0.043,0.272,0.1,0.997,0.172,2.176c0.071,1.179,0.107,1.991,0.107,2.434h0.085c0.815-1.772,1.837-3.059,3.066-3.859
			c1.229-0.8,2.694-1.201,4.396-1.201c2.458,0,4.345,0.758,5.66,2.273s1.973,3.73,1.973,6.646v14.73H138.724z"/>
		<path fill="#333334" d="M170.069,32.701c0,2.244-0.919,4.006-2.755,5.285c-1.837,1.279-4.378,1.919-7.622,1.919
			c-3.188,0-5.629-0.504-7.322-1.512c-1.694-1.007-2.819-2.576-3.377-4.706l5.296-0.793c0.3,1.101,0.818,1.88,1.555,2.337
			c0.735,0.458,2.019,0.686,3.849,0.686c1.687,0,2.916-0.214,3.688-0.644c0.771-0.429,1.158-1.1,1.158-2.015
			c0-0.743-0.312-1.333-0.933-1.769c-0.622-0.436-1.677-0.804-3.163-1.104c-3.402-0.672-5.696-1.297-6.883-1.876
			c-1.187-0.579-2.09-1.329-2.712-2.251s-0.933-2.055-0.933-3.398c0-2.215,0.854-3.941,2.563-5.178
			c1.707-1.236,4.127-1.854,7.258-1.854c2.758,0,4.978,0.536,6.657,1.608c1.68,1.072,2.727,2.624,3.141,4.653l-5.339,0.558
			c-0.171-0.943-0.593-1.647-1.265-2.112c-0.672-0.464-1.736-0.697-3.194-0.697c-1.43,0-2.502,0.183-3.217,0.547
			c-0.715,0.365-1.072,0.976-1.072,1.833c0,0.672,0.275,1.205,0.826,1.598c0.55,0.393,1.476,0.718,2.776,0.976
			c1.815,0.372,3.427,0.754,4.835,1.147c1.407,0.394,2.537,0.861,3.388,1.404c0.851,0.543,1.529,1.24,2.037,2.091
			C169.815,30.282,170.069,31.372,170.069,32.701z"/>
		<path fill="#333334" d="M180.876,39.862c-1.772,0-3.138-0.482-4.095-1.447c-0.958-0.965-1.437-2.426-1.437-4.384v-13.68h-2.938
			v-4.074h3.237l1.887-5.446h3.773v5.446h4.396v4.074h-4.396v12.05c0,1.129,0.215,1.962,0.644,2.498s1.094,0.804,1.994,0.804
			c0.472,0,1.144-0.1,2.016-0.3v3.73C184.471,39.619,182.777,39.862,180.876,39.862z"/>
		<path fill="#333334" d="M189.56,39.477V21.724c0-1.272-0.019-2.333-0.054-3.184c-0.036-0.851-0.075-1.604-0.118-2.262h5.746
			c0.043,0.257,0.1,1.04,0.172,2.348c0.071,1.308,0.107,2.176,0.107,2.605h0.085c0.586-1.63,1.107-2.777,1.565-3.441
			c0.457-0.665,1-1.158,1.63-1.479c0.629-0.322,1.415-0.482,2.358-0.482c0.771,0,1.394,0.107,1.865,0.322v5.039
			c-0.973-0.214-1.83-0.322-2.573-0.322c-1.501,0-2.669,0.608-3.505,1.823c-0.837,1.215-1.255,3.016-1.255,5.403v11.385H189.56z"/>
		<path fill="#333334" d="M212.33,16.277v13.015c0,4.074,1.372,6.111,4.116,6.111c1.458,0,2.634-0.625,3.527-1.876
			s1.34-2.855,1.34-4.813V16.277h6.025v18.01c0,1.973,0.057,3.703,0.171,5.189h-5.746c-0.171-2.058-0.257-3.595-0.257-4.61h-0.107
			c-0.801,1.758-1.819,3.038-3.056,3.838s-2.705,1.201-4.405,1.201c-2.459,0-4.346-0.754-5.661-2.262
			c-1.315-1.508-1.973-3.72-1.973-6.636v-14.73H212.33z"/>
		<path fill="#333334" d="M243.141,39.905c-3.517,0-6.232-1.047-8.148-3.141c-1.915-2.094-2.873-5.013-2.873-8.758
			c0-3.831,0.965-6.815,2.895-8.952s4.667-3.206,8.212-3.206c2.73,0,4.989,0.686,6.775,2.058c1.787,1.373,2.909,3.267,3.366,5.682
			l-6.067,0.3c-0.172-1.187-0.601-2.134-1.286-2.841c-0.687-0.708-1.658-1.061-2.916-1.061c-3.103,0-4.653,2.594-4.653,7.783
			c0,5.346,1.58,8.019,4.739,8.019c1.143,0,2.101-0.361,2.873-1.083c0.771-0.722,1.25-1.797,1.437-3.227l6.046,0.279
			c-0.214,1.586-0.782,3.002-1.704,4.245c-0.922,1.244-2.134,2.205-3.635,2.884C246.699,39.566,245.013,39.905,243.141,39.905z"/>
		<path fill="#333334" d="M263.831,39.862c-1.772,0-3.138-0.482-4.095-1.447c-0.958-0.965-1.437-2.426-1.437-4.384v-13.68h-2.938
			v-4.074h3.237l1.887-5.446h3.773v5.446h4.396v4.074h-4.396v12.05c0,1.129,0.215,1.962,0.644,2.498s1.094,0.804,1.994,0.804
			c0.472,0,1.144-0.1,2.016-0.3v3.73C267.426,39.619,265.732,39.862,263.831,39.862z"/>
	</g>
	<g>
		<rect x="42.836" fill="#333334" width="16.504" height="39.478"/>
	</g>
	<g>
		<rect x="21.221" y="8.225" fill="#333334" width="16.507" height="31.253"/>
	</g>
	<g>
		<rect y="17.107" fill="#333334" width="16.506" height="22.37"/>
	</g>
</g>
</svg>
